<?xml version="1.0" standalone="no" ?>
<!DOCTYPE svg PUBLIC "-//W3C//DTD SVG 1.0//EN" "http://www.w3.org/TR/2001/REC-SVG-20010904/DTD/svg10.dtd">
<svg style="vertical-align: -0.127ex" xmlns="http://www.w3.org/2000/svg" width="6.506ex" height="1.824ex" role="img" focusable="false" viewBox="0 -750 2875.6 806">
<style>
  * {
    fill: ;
    background-color: transparent;
  }
</style><g stroke="currentColor" fill="currentColor" stroke-width="0" transform="scale(1,-1)"><g data-mml-node="math"><g data-mml-node="mi"><path data-c="1D458" d="M121 647Q121 657 125 670T137 683Q138 683 209 688T282 694Q294 694 294 686Q294 679 244 477Q194 279 194 272Q213 282 223 291Q247 309 292 354T362 415Q402 442 438 442Q468 442 485 423T503 369Q503 344 496 327T477 302T456 291T438 288Q418 288 406 299T394 328Q394 353 410 369T442 390L458 393Q446 405 434 405H430Q398 402 367 380T294 316T228 255Q230 254 243 252T267 246T293 238T320 224T342 206T359 180T365 147Q365 130 360 106T354 66Q354 26 381 26Q429 26 459 145Q461 153 479 153H483Q499 153 499 144Q499 139 496 130Q455 -11 378 -11Q333 -11 305 15T277 90Q277 108 280 121T283 145Q283 167 269 183T234 206T200 217T182 220H180Q168 178 159 139T145 81T136 44T129 20T122 7T111 -2Q98 -11 83 -11Q66 -11 57 -1T48 16Q48 26 85 176T158 471L195 616Q196 629 188 632T149 637H144Q134 637 131 637T124 640T121 647Z"></path></g><g data-mml-node="TeXAtom" data-mjx-texclass="ORD" transform="translate(521,0)"><g data-mml-node="mo"><path data-c="24" d="M162 187Q162 164 146 149T109 133H103V130Q108 115 115 105Q122 92 131 82T150 64T170 52T190 44T206 40T220 37L227 36V313Q190 320 162 335Q116 358 86 404T55 508Q55 567 85 614T165 685Q186 696 225 704H227V750H273V704L286 703Q369 690 413 631Q441 588 444 531Q444 514 443 509Q439 490 425 479T391 468Q368 468 353 483T337 522Q337 546 353 560T390 575L394 576V578Q386 599 372 614T342 637T314 649T288 656L273 658V408L288 405Q329 394 355 376Q396 348 420 300T444 199Q444 130 408 76T313 1Q286 -9 276 -9H273V-56H227V-10H221Q202 -6 193 -4T155 11T108 41T74 94T55 176V182Q55 227 95 238Q103 240 108 240Q129 240 145 226T162 187ZM225 657Q219 657 204 651T169 632T135 594T121 538Q121 512 131 491T156 457T187 435T213 423T227 420V539Q227 657 225 657ZM378 169Q378 230 339 265T274 301Q273 301 273 169V37Q324 50 351 87T378 169Z"></path></g></g><g data-mml-node="mo" transform="translate(1298.8,0)"><path data-c="3A" d="M78 370Q78 394 95 412T138 430Q162 430 180 414T199 371Q199 346 182 328T139 310T96 327T78 370ZM78 60Q78 84 95 102T138 120Q162 120 180 104T199 61Q199 36 182 18T139 0T96 17T78 60Z"></path></g><g data-mml-node="TeXAtom" data-mjx-texclass="ORD" transform="translate(1854.6,0)"><g data-mml-node="mo"><path data-c="24" d="M162 187Q162 164 146 149T109 133H103V130Q108 115 115 105Q122 92 131 82T150 64T170 52T190 44T206 40T220 37L227 36V313Q190 320 162 335Q116 358 86 404T55 508Q55 567 85 614T165 685Q186 696 225 704H227V750H273V704L286 703Q369 690 413 631Q441 588 444 531Q444 514 443 509Q439 490 425 479T391 468Q368 468 353 483T337 522Q337 546 353 560T390 575L394 576V578Q386 599 372 614T342 637T314 649T288 656L273 658V408L288 405Q329 394 355 376Q396 348 420 300T444 199Q444 130 408 76T313 1Q286 -9 276 -9H273V-56H227V-10H221Q202 -6 193 -4T155 11T108 41T74 94T55 176V182Q55 227 95 238Q103 240 108 240Q129 240 145 226T162 187ZM225 657Q219 657 204 651T169 632T135 594T121 538Q121 512 131 491T156 457T187 435T213 423T227 420V539Q227 657 225 657ZM378 169Q378 230 339 265T274 301Q273 301 273 169V37Q324 50 351 87T378 169Z"></path></g></g><g data-mml-node="mi" transform="translate(2354.6,0)"><path data-c="1D458" d="M121 647Q121 657 125 670T137 683Q138 683 209 688T282 694Q294 694 294 686Q294 679 244 477Q194 279 194 272Q213 282 223 291Q247 309 292 354T362 415Q402 442 438 442Q468 442 485 423T503 369Q503 344 496 327T477 302T456 291T438 288Q418 288 406 299T394 328Q394 353 410 369T442 390L458 393Q446 405 434 405H430Q398 402 367 380T294 316T228 255Q230 254 243 252T267 246T293 238T320 224T342 206T359 180T365 147Q365 130 360 106T354 66Q354 26 381 26Q429 26 459 145Q461 153 479 153H483Q499 153 499 144Q499 139 496 130Q455 -11 378 -11Q333 -11 305 15T277 90Q277 108 280 121T283 145Q283 167 269 183T234 206T200 217T182 220H180Q168 178 159 139T145 81T136 44T129 20T122 7T111 -2Q98 -11 83 -11Q66 -11 57 -1T48 16Q48 26 85 176T158 471L195 616Q196 629 188 632T149 637H144Q134 637 131 637T124 640T121 647Z"></path></g></g></g></svg>