<?xml version="1.0" standalone="no" ?>
<!DOCTYPE svg PUBLIC "-//W3C//DTD SVG 1.0//EN" "http://www.w3.org/TR/2001/REC-SVG-20010904/DTD/svg10.dtd">
<svg style="vertical-align: -0.462ex" xmlns="http://www.w3.org/2000/svg" width="6.013ex" height="2.158ex" role="img" focusable="false" viewBox="0 -750 2657.6 954">
<style>
  * {
    fill: ;
    background-color: transparent;
  }
</style><g stroke="currentColor" fill="currentColor" stroke-width="0" transform="scale(1,-1)"><g data-mml-node="math"><g data-mml-node="mi"><path data-c="1D457" d="M297 596Q297 627 318 644T361 661Q378 661 389 651T403 623Q403 595 384 576T340 557Q322 557 310 567T297 596ZM288 376Q288 405 262 405Q240 405 220 393T185 362T161 325T144 293L137 279Q135 278 121 278H107Q101 284 101 286T105 299Q126 348 164 391T252 441Q253 441 260 441T272 442Q296 441 316 432Q341 418 354 401T367 348V332L318 133Q267 -67 264 -75Q246 -125 194 -164T75 -204Q25 -204 7 -183T-12 -137Q-12 -110 7 -91T53 -71Q70 -71 82 -81T95 -112Q95 -148 63 -167Q69 -168 77 -168Q111 -168 139 -140T182 -74L193 -32Q204 11 219 72T251 197T278 308T289 365Q289 372 288 376Z"></path></g><g data-mml-node="TeXAtom" data-mjx-texclass="ORD" transform="translate(412,0)"><g data-mml-node="mo"><path data-c="24" d="M162 187Q162 164 146 149T109 133H103V130Q108 115 115 105Q122 92 131 82T150 64T170 52T190 44T206 40T220 37L227 36V313Q190 320 162 335Q116 358 86 404T55 508Q55 567 85 614T165 685Q186 696 225 704H227V750H273V704L286 703Q369 690 413 631Q441 588 444 531Q444 514 443 509Q439 490 425 479T391 468Q368 468 353 483T337 522Q337 546 353 560T390 575L394 576V578Q386 599 372 614T342 637T314 649T288 656L273 658V408L288 405Q329 394 355 376Q396 348 420 300T444 199Q444 130 408 76T313 1Q286 -9 276 -9H273V-56H227V-10H221Q202 -6 193 -4T155 11T108 41T74 94T55 176V182Q55 227 95 238Q103 240 108 240Q129 240 145 226T162 187ZM225 657Q219 657 204 651T169 632T135 594T121 538Q121 512 131 491T156 457T187 435T213 423T227 420V539Q227 657 225 657ZM378 169Q378 230 339 265T274 301Q273 301 273 169V37Q324 50 351 87T378 169Z"></path></g></g><g data-mml-node="mo" transform="translate(1189.8,0)"><path data-c="3A" d="M78 370Q78 394 95 412T138 430Q162 430 180 414T199 371Q199 346 182 328T139 310T96 327T78 370ZM78 60Q78 84 95 102T138 120Q162 120 180 104T199 61Q199 36 182 18T139 0T96 17T78 60Z"></path></g><g data-mml-node="TeXAtom" data-mjx-texclass="ORD" transform="translate(1745.6,0)"><g data-mml-node="mo"><path data-c="24" d="M162 187Q162 164 146 149T109 133H103V130Q108 115 115 105Q122 92 131 82T150 64T170 52T190 44T206 40T220 37L227 36V313Q190 320 162 335Q116 358 86 404T55 508Q55 567 85 614T165 685Q186 696 225 704H227V750H273V704L286 703Q369 690 413 631Q441 588 444 531Q444 514 443 509Q439 490 425 479T391 468Q368 468 353 483T337 522Q337 546 353 560T390 575L394 576V578Q386 599 372 614T342 637T314 649T288 656L273 658V408L288 405Q329 394 355 376Q396 348 420 300T444 199Q444 130 408 76T313 1Q286 -9 276 -9H273V-56H227V-10H221Q202 -6 193 -4T155 11T108 41T74 94T55 176V182Q55 227 95 238Q103 240 108 240Q129 240 145 226T162 187ZM225 657Q219 657 204 651T169 632T135 594T121 538Q121 512 131 491T156 457T187 435T213 423T227 420V539Q227 657 225 657ZM378 169Q378 230 339 265T274 301Q273 301 273 169V37Q324 50 351 87T378 169Z"></path></g></g><g data-mml-node="mi" transform="translate(2245.6,0)"><path data-c="1D457" d="M297 596Q297 627 318 644T361 661Q378 661 389 651T403 623Q403 595 384 576T340 557Q322 557 310 567T297 596ZM288 376Q288 405 262 405Q240 405 220 393T185 362T161 325T144 293L137 279Q135 278 121 278H107Q101 284 101 286T105 299Q126 348 164 391T252 441Q253 441 260 441T272 442Q296 441 316 432Q341 418 354 401T367 348V332L318 133Q267 -67 264 -75Q246 -125 194 -164T75 -204Q25 -204 7 -183T-12 -137Q-12 -110 7 -91T53 -71Q70 -71 82 -81T95 -112Q95 -148 63 -167Q69 -168 77 -168Q111 -168 139 -140T182 -74L193 -32Q204 11 219 72T251 197T278 308T289 365Q289 372 288 376Z"></path></g></g></g></svg>